<svg xmlns="http://www.w3.org/2000/svg" viewBox="0 0 800 600" width="800" height="600">
    <!-- Background -->
    <rect x="0" y="0" width="800" height="600" fill="#f8f9fa" />
    
    <!-- Device Frame -->
    <rect x="100" y="50" width="600" height="400" rx="10" ry="10" fill="#ffffff" stroke="#e0e0e0" stroke-width="2" />
    
    <!-- Browser Header -->
    <rect x="100" y="50" width="600" height="40" rx="10" ry="10" fill="#f0f0f0" />
    <circle cx="130" cy="70" r="8" fill="#ff6b6b" />
    <circle cx="160" cy="70" r="8" fill="#feca57" />
    <circle cx="190" cy="70" r="8" fill="#1dd1a1" />
    <rect x="250" y="60" width="300" height="20" rx="5" ry="5" fill="#e0e0e0" />
    
    <!-- Document Content -->
    <rect x="150" y="120" width="500" height="300" fill="#ffffff" />
    
    <!-- Text lines -->
    <rect x="180" y="150" width="440" height="10" rx="2" ry="2" fill="#e0e0e0" />
    <rect x="180" y="170" width="380" height="10" rx="2" ry="2" fill="#e0e0e0" />
    <rect x="180" y="190" width="410" height="10" rx="2" ry="2" fill="#e0e0e0" />
    <rect x="180" y="210" width="390" height="10" rx="2" ry="2" fill="#e0e0e0" />
    <rect x="180" y="230" width="440" height="10" rx="2" ry="2" fill="#e0e0e0" />
    
    <!-- Highlighted Text with Annotation -->
    <rect x="180" y="260" width="200" height="20" rx="3" ry="3" fill="#d6c8ee" />
    
    <!-- Annotation Callout -->
    <rect x="400" y="230" width="220" height="120" rx="5" ry="5" fill="#8e44ad" />
    <polygon points="390,270 400,250 400,290" fill="#8e44ad" />
    
    <!-- Annotation Content -->
    <rect x="420" y="250" width="180" height="8" rx="2" ry="2" fill="#ffffff" opacity="0.8" />
    <rect x="420" y="270" width="160" height="8" rx="2" ry="2" fill="#ffffff" opacity="0.8" />
    <rect x="420" y="290" width="180" height="8" rx="2" ry="2" fill="#ffffff" opacity="0.8" />
    <rect x="420" y="310" width="140" height="8" rx="2" ry="2" fill="#ffffff" opacity="0.8" />
    
    <!-- More text lines -->
    <rect x="180" y="290" width="200" height="10" rx="2" ry="2" fill="#e0e0e0" />
    <rect x="180" y="310" width="190" height="10" rx="2" ry="2" fill="#e0e0e0" />
    <rect x="180" y="330" width="210" height="10" rx="2" ry="2" fill="#e0e0e0" />
    <rect x="180" y="350" width="180" height="10" rx="2" ry="2" fill="#e0e0e0" />
    <rect x="180" y="370" width="200" height="10" rx="2" ry="2" fill="#e0e0e0" />
    
    <!-- People Icons/Avatars (representing crowdsourcing) -->
    <circle cx="150" cy="500" r="30" fill="#8e44ad" opacity="0.8" />
    <circle cx="220" cy="520" r="30" fill="#9b59b6" opacity="0.8" />
    <circle cx="290" cy="490" r="30" fill="#8e44ad" opacity="0.8" />
    <circle cx="360" cy="510" r="30" fill="#9b59b6" opacity="0.8" />
    <circle cx="430" cy="490" r="30" fill="#8e44ad" opacity="0.8" />
    <circle cx="500" cy="520" r="30" fill="#9b59b6" opacity="0.8" />
    <circle cx="570" cy="500" r="30" fill="#8e44ad" opacity="0.8" />
    
    <!-- Stylized simplified person shapes inside circles -->
    <circle cx="150" cy="485" r="10" fill="#ffffff" />
    <rect x="140" y="495" width="20" height="25" rx="5" ry="5" fill="#ffffff" />
    
    <circle cx="220" cy="505" r="10" fill="#ffffff" />
    <rect x="210" y="515" width="20" height="25" rx="5" ry="5" fill="#ffffff" />
    
    <circle cx="290" cy="475" r="10" fill="#ffffff" />
    <rect x="280" y="485" width="20" height="25" rx="5" ry="5" fill="#ffffff" />
    
    <circle cx="360" cy="495" r="10" fill="#ffffff" />
    <rect x="350" y="505" width="20" height="25" rx="5" ry="5" fill="#ffffff" />
    
    <circle cx="430" cy="475" r="10" fill="#ffffff" />
    <rect x="420" y="485" width="20" height="25" rx="5" ry="5" fill="#ffffff" />
    
    <circle cx="500" cy="505" r="10" fill="#ffffff" />
    <rect x="490" cy="515" width="20" height="25" rx="5" ry="5" fill="#ffffff" />
    
    <circle cx="570" cy="485" r="10" fill="#ffffff" />
    <rect x="560" cy="495" width="20" height="25" rx="5" ry="5" fill="#ffffff" />
    
    <!-- Connection lines between people and document -->
    <line x1="150" y1="470" x2="200" y2="380" stroke="#8e44ad" stroke-width="2" stroke-dasharray="5,5" />
    <line x1="220" y1="490" x2="250" y2="380" stroke="#9b59b6" stroke-width="2" stroke-dasharray="5,5" />
    <line x1="290" y1="460" x2="300" y2="380" stroke="#8e44ad" stroke-width="2" stroke-dasharray="5,5" />
    <line x1="360" y1="480" x2="350" y2="380" stroke="#9b59b6" stroke-width="2" stroke-dasharray="5,5" />
    <line x1="430" y1="460" x2="400" y2="380" stroke="#8e44ad" stroke-width="2" stroke-dasharray="5,5" />
    <line x1="500" y1="490" x2="450" y2="380" stroke="#9b59b6" stroke-width="2" stroke-dasharray="5,5" />
    <line x1="570" y1="470" x2="500" y2="380" stroke="#8e44ad" stroke-width="2" stroke-dasharray="5,5" />
</svg> 