<svg xmlns="http://www.w3.org/2000/svg" viewBox="0 0 400 300" width="400" height="300">
    <!-- Background -->
    <rect x="0" y="0" width="400" height="300" fill="#f8f9fa" rx="10" ry="10" />
    
    <!-- Research Elements -->
    <g transform="translate(50, 50)">
        <!-- Microscope -->
        <rect x="120" y="100" width="20" height="80" fill="#8e44ad" />
        <rect x="100" y="180" width="60" height="10" fill="#8e44ad" />
        <circle cx="130" cy="80" r="25" fill="#9b59b6" stroke="#8e44ad" stroke-width="2" />
        <circle cx="130" cy="80" r="10" fill="#ffffff" />
        
        <!-- Documents/Research Papers -->
        <g transform="translate(210, 60)">
            <rect x="0" y="0" width="70" height="90" fill="#ffffff" stroke="#e0e0e0" stroke-width="2" />
            <rect x="10" y="15" width="50" height="3" fill="#e0e0e0" />
            <rect x="10" y="25" width="40" height="3" fill="#e0e0e0" />
            <rect x="10" y="35" width="50" height="3" fill="#e0e0e0" />
            <rect x="10" y="45" width="45" height="3" fill="#e0e0e0" />
            <rect x="10" y="65" width="50" height="15" rx="3" ry="3" fill="#d6c8ee" />
        </g>
        
        <g transform="translate(200, 70)">
            <rect x="0" y="0" width="70" height="90" fill="#ffffff" stroke="#e0e0e0" stroke-width="2" />
            <rect x="10" y="15" width="50" height="3" fill="#e0e0e0" />
            <rect x="10" y="25" width="40" height="3" fill="#e0e0e0" />
            <rect x="10" y="35" width="50" height="3" fill="#e0e0e0" />
            <rect x="10" y="45" width="45" height="3" fill="#e0e0e0" />
            <rect x="10" y="65" width="50" height="15" rx="3" ry="3" fill="#d6c8ee" />
        </g>
        
        <!-- Lab Flask -->
        <path d="M50,70 L70,120 L70,150 C70,165 30,165 30,150 L30,120 Z" fill="#d6c8ee" stroke="#8e44ad" stroke-width="2" />
        <rect x="45" y="50" width="10" height="20" fill="#8e44ad" />
        <circle cx="50" cy="130" r="10" fill="#9b59b6" opacity="0.6" />
        <circle cx="60" cy="110" r="8" fill="#9b59b6" opacity="0.6" />
        <circle cx="40" cy="115" r="6" fill="#9b59b6" opacity="0.6" />
        
        <!-- Brain/Data Connection -->
        <g transform="translate(100, 20)">
            <path d="M40,20 C60,0 80,0 100,20 C120,40 120,60 100,80 C80,100 60,100 40,80 C20,60 20,40 40,20 Z" fill="#e0e0e0" stroke="#8e44ad" stroke-width="2" />
            <circle cx="60" cy="40" r="5" fill="#8e44ad" />
            <circle cx="80" cy="40" r="5" fill="#8e44ad" />
            <circle cx="70" cy="60" r="5" fill="#8e44ad" />
            <line x1="60" y1="40" x2="80" y2="40" stroke="#9b59b6" stroke-width="2" />
            <line x1="60" y1="40" x2="70" y2="60" stroke="#9b59b6" stroke-width="2" />
            <line x1="80" y1="40" x2="70" y2="60" stroke="#9b59b6" stroke-width="2" />
        </g>
    </g>
</svg> 