<svg xmlns="http://www.w3.org/2000/svg" viewBox="0 0 500 300" width="500" height="300">
    <!-- Background -->
    <rect x="0" y="0" width="500" height="300" fill="#f8f9fa" rx="10" ry="10" />
    
    <!-- Team Members -->
    <g transform="translate(75, 30)">
        <!-- Team Member 1 (Center) -->
        <g transform="translate(125, 0)">
            <circle cx="50" cy="50" r="40" fill="#9b59b6" />
            <circle cx="50" cy="35" r="15" fill="#d6c8ee" />
            <path d="M25,85 C25,60 75,60 75,85" fill="#d6c8ee" />
            <rect x="40" y="120" width="20" height="80" rx="5" ry="5" fill="#8e44ad" />
            <rect x="35" y="200" width="30" height="10" rx="3" ry="3" fill="#8e44ad" />
            <rect x="43" y="210" width="14" height="20" rx="2" ry="2" fill="#8e44ad" />
            <path d="M50,90 L50,120" stroke="#8e44ad" stroke-width="2" />
            <line x1="50" y1="100" x2="30" y2="120" stroke="#8e44ad" stroke-width="2" />
            <line x1="50" y1="100" x2="70" y2="120" stroke="#8e44ad" stroke-width="2" />
        </g>
        
        <!-- Team Member 2 (Left) -->
        <g transform="translate(30, 30)">
            <circle cx="50" cy="50" r="35" fill="#8e44ad" />
            <circle cx="50" cy="35" r="15" fill="#d6c8ee" />
            <path d="M30,80 C30,55 70,55 70,80" fill="#d6c8ee" />
            <rect x="40" y="105" width="20" height="70" rx="5" ry="5" fill="#9b59b6" />
            <rect x="35" y="175" width="30" height="10" rx="3" ry="3" fill="#9b59b6" />
            <rect x="43" y="185" width="14" height="20" rx="2" ry="2" fill="#9b59b6" />
            <path d="M50,80 L50,105" stroke="#9b59b6" stroke-width="2" />
            <line x1="50" y1="90" x2="30" y2="105" stroke="#9b59b6" stroke-width="2" />
            <line x1="50" y1="90" x2="70" y2="105" stroke="#9b59b6" stroke-width="2" />
        </g>
        
        <!-- Team Member 3 (Right) -->
        <g transform="translate(220, 30)">
            <circle cx="50" cy="50" r="35" fill="#8e44ad" />
            <circle cx="50" cy="35" r="15" fill="#d6c8ee" />
            <path d="M30,80 C30,55 70,55 70,80" fill="#d6c8ee" />
            <rect x="40" y="105" width="20" height="70" rx="5" ry="5" fill="#9b59b6" />
            <rect x="35" y="175" width="30" height="10" rx="3" ry="3" fill="#9b59b6" />
            <rect x="43" y="185" width="14" height="20" rx="2" ry="2" fill="#9b59b6" />
            <path d="M50,80 L50,105" stroke="#9b59b6" stroke-width="2" />
            <line x1="50" y1="90" x2="30" y2="105" stroke="#9b59b6" stroke-width="2" />
            <line x1="50" y1="90" x2="70" y2="105" stroke="#9b59b6" stroke-width="2" />
        </g>
        
        <!-- Team Member 4 (Left Back) -->
        <g transform="translate(-20, 50)">
            <circle cx="50" cy="50" r="30" fill="#9b59b6" opacity="0.8" />
            <circle cx="50" cy="35" r="12" fill="#d6c8ee" opacity="0.8" />
            <path d="M35,75 C35,55 65,55 65,75" fill="#d6c8ee" opacity="0.8" />
            <rect x="42" y="95" width="16" height="60" rx="4" ry="4" fill="#8e44ad" opacity="0.8" />
        </g>
        
        <!-- Team Member 5 (Right Back) -->
        <g transform="translate(320, 50)">
            <circle cx="50" cy="50" r="30" fill="#9b59b6" opacity="0.8" />
            <circle cx="50" cy="35" r="12" fill="#d6c8ee" opacity="0.8" />
            <path d="M35,75 C35,55 65,55 65,75" fill="#d6c8ee" opacity="0.8" />
            <rect x="42" y="95" width="16" height="60" rx="4" ry="4" fill="#8e44ad" opacity="0.8" />
        </g>
    </g>
    
    <!-- Company Building Element -->
    <g transform="translate(100, 230)">
        <rect x="0" y="0" width="300" height="10" fill="#2c3e50" />
        <rect x="50" y="-70" width="200" height="70" fill="#ecf0f1" stroke="#2c3e50" stroke-width="1" />
        <rect x="120" y="-70" width="60" height="70" fill="#d6c8ee" />
        <rect x="120" y="-30" width="60" height="30" fill="#8e44ad" />
        
        <!-- Windows -->
        <rect x="70" y="-60" width="20" height="20" fill="#d6c8ee" stroke="#2c3e50" stroke-width="1" />
        <rect x="70" y="-30" width="20" height="20" fill="#d6c8ee" stroke="#2c3e50" stroke-width="1" />
        <rect x="210" y="-60" width="20" height="20" fill="#d6c8ee" stroke="#2c3e50" stroke-width="1" />
        <rect x="210" y="-30" width="20" height="20" fill="#d6c8ee" stroke="#2c3e50" stroke-width="1" />
        
        <!-- Potato Logo on Building -->
        <circle cx="150" cy="-45" r="10" fill="#c39b5e" />
        <circle cx="145" cy="-47" r="2" fill="#4a2100" />
        <circle cx="155" cy="-47" r="2" fill="#4a2100" />
        <path d="M145,-43 Q150,-40 155,-43" fill="none" stroke="#4a2100" stroke-width="1" stroke-linecap="round" />
    </g>
</svg> 